<?xml version="1.0" encoding="UTF-8" standalone="no"?>
<svg
   xmlns:dc="http://purl.org/dc/elements/1.1/"
   xmlns:cc="http://creativecommons.org/ns#"
   xmlns:rdf="http://www.w3.org/1999/02/22-rdf-syntax-ns#"
   xmlns:svg="http://www.w3.org/2000/svg"
   xmlns="http://www.w3.org/2000/svg"
   id="svg8"
   version="1.1"
   viewBox="0 0 179.65897 16.5354"
   height="16.5354mm"
   width="179.65897mm">
  <defs
     id="defs2" />
  <metadata
     id="metadata5">
    <rdf:RDF>
      <cc:Work
         rdf:about="">
        <dc:format>image/svg+xml</dc:format>
        <dc:type
           rdf:resource="http://purl.org/dc/dcmitype/StillImage" />
        <dc:title></dc:title>
      </cc:Work>
    </rdf:RDF>
  </metadata>
  <g
     transform="translate(-9.7695452,-110.01275)"
     id="layer1">
    <g
       id="flowRoot3713"
       style="font-style:normal;font-weight:normal;font-size:40px;line-height:1.25;font-family:sans-serif;letter-spacing:0px;word-spacing:0px;fill:#000000;fill-opacity:1;stroke:none"
       transform="scale(0.26458333)"
       aria-label="std::cout &lt;&lt;">
      <path
         id="path4703"
         style="fill:#4ec9b0;fill-opacity:1"
         d="m 36.924266,473.78023 c 0,2.976 1.248,4.512 3.456,4.512 1.056,0 2.592,-0.768 4.8,-2.208 5.28,1.344 9.984,2.112 14.208,2.112 11.712,0 18.336,-5.856 18.336,-13.92 0,-9.216 -6.432,-12.864 -18.816,-13.152 -9.216,-0.192 -14.592,-0.672 -14.592,-5.664 0,-3.744 3.552,-6.912 9.792,-6.912 4.896,0 8.352,1.152 11.904,4.32 2.784,2.496 3.744,4.896 5.856,4.896 2.304,0 3.168,-1.632 3.168,-4.704 v -5.472 c 0,-3.168 -1.056,-4.704 -3.168,-4.704 -2.496,0 -3.456,1.824 -4.8,1.824 -1.344,0 -5.088,-2.112 -11.904,-2.112 -11.616,0 -18.048,5.376 -18.048,13.152 0,8.352 6.816,12.96 19.584,12.96 1.344,0 2.208,0 2.688,0 7.104,0 10.56,1.344 10.56,6.144 0,4.224 -4.224,7.296 -11.04,7.296 -6.336,0 -11.712,-2.304 -14.208,-5.568 -1.824,-2.4 -1.536,-4.992 -4.416,-4.992 -2.496,0 -3.36,1.344 -3.36,3.84 z" />
      <path
         id="path4705"
         style="fill:#4ec9b0;fill-opacity:1"
         d="m 127.98627,436.43623 h -18.432 v -9.504 c 0,-4.608 -0.384,-6.528 -3.744,-6.528 -2.496,0 -3.648,1.344 -3.648,3.936 0,1.248 0,2.112 0,2.496 v 9.6 h -5.184004 c -4.512,0 -6.432,0.288 -6.432,3.36 0,2.304 1.152,3.264 3.744,3.264 h 7.872004 v 15.648 c 0,0.48 0,0.96 0,1.44 0,4.32 0.096,8.064 1.728,10.848 2.688,4.704 7.68,7.008 14.88,7.008 4.416,0 9.312,-1.248 15.168,-3.552 3.456,-1.344 5.184,-2.688 5.184,-4.896 0,-1.728 -1.536,-3.36 -3.264,-3.36 -3.744,0 -9.984,4.992 -17.568,4.992 -8.256,0 -8.832,-4.992 -8.832,-12.48 v -15.648 h 19.008 c 2.592,0 3.936,-1.056 3.936,-3.264 0,-2.4 -1.44,-3.36 -4.416,-3.36 z" />
      <path
         id="path4707"
         style="fill:#4ec9b0;fill-opacity:1"
         d="m 156.36027,456.11623 c 0,-9.312 5.952,-15.456 14.784,-15.456 8.736,0 14.784,6.336 14.784,14.976 0,8.64 -6.24,15.168 -14.88,15.168 -8.352,0 -14.688,-5.856 -14.688,-14.688 z m 30.72,21.024 h 8.928 c 2.016,0 3.36,-1.248 3.36,-3.36 0,-2.4 -1.344,-3.264 -4.32,-3.264 -0.672,0 -1.44,0 -2.112,0 v -52.8 c 0,-1.344 -0.864,-1.92 -2.688,-1.92 h -9.6 c -2.496,0 -3.744,1.152 -3.744,3.36 0,3.072 2.016,3.36 6.432,3.36 h 2.496 v 17.952 c -3.648,-4.512 -8.832,-6.72 -15.264,-6.72 -12.672,0 -22.272,9.792 -22.272,22.176 0,13.152 9.024,22.368 20.832,22.368 6.624,0 12.384,-2.688 16.128,-7.392 v 3.84 c 0,1.632 0.384,2.4 1.824,2.4 z" />
      <path
         id="path4709"
         style="fill:#ffffff;fill-opacity:1"
         d="m 221.50227,469.46023 c 0,4.8 3.648,8.352 9.216,8.352 5.568,0 9.216,-3.456 9.216,-8.352 0,-4.896 -3.648,-8.352 -9.216,-8.352 -5.568,0 -9.216,3.552 -9.216,8.352 z m 0,-25.92 c 0,4.8 3.648,8.352 9.216,8.352 5.568,0 9.216,-3.456 9.216,-8.352 0,-4.896 -3.648,-8.352 -9.216,-8.352 -5.568,0 -9.216,3.552 -9.216,8.352 z" />
      <path
         id="path4711"
         style="fill:#ffffff;fill-opacity:1"
         d="m 279.25227,469.46023 c 0,4.8 3.648,8.352 9.216,8.352 5.568,0 9.216,-3.456 9.216,-8.352 0,-4.896 -3.648,-8.352 -9.216,-8.352 -5.568,0 -9.216,3.552 -9.216,8.352 z m 0,-25.92 c 0,4.8 3.648,8.352 9.216,8.352 5.568,0 9.216,-3.456 9.216,-8.352 0,-4.896 -3.648,-8.352 -9.216,-8.352 -5.568,0 -9.216,3.552 -9.216,8.352 z" />
      <path
         id="path4713"
         style="fill:#2b91af;fill-opacity:1"
         d="m 367.33827,447.95623 v -8.736 c 0,-4.032 -0.48,-5.76 -3.36,-5.76 -2.4,0 -3.648,0.864 -3.648,2.976 0,0 0,0.096 0,0.192 -5.184,-2.592 -9.888,-3.936 -14.784,-3.936 -13.44,0 -23.616,9.888 -23.616,22.848 0,12.96 10.08,22.752 23.712,22.752 11.328,0 21.888,-7.008 21.888,-11.424 0,-1.92 -1.344,-3.264 -3.264,-3.264 -2.496,0 -4.32,2.304 -7.2,4.224 -3.36,2.208 -7.2,3.456 -10.944,3.456 -9.792,0 -16.032,-6.528 -16.032,-15.84 0,-9.024 6.72,-15.456 16.416,-15.456 5.568,0 9.984,2.592 12.864,7.68 1.44,2.592 2.4,3.744 4.416,3.744 2.304,0 3.552,-1.152 3.552,-3.456 z" />
      <path
         id="path4715"
         style="fill:#2b91af;fill-opacity:1"
         d="m 428.44827,455.54023 c 0,-12.96 -9.6,-22.752 -24.48,-22.752 -14.88,0 -24.576,9.696 -24.576,22.752 0,13.056 9.696,22.752 24.576,22.752 14.88,0 24.48,-9.696 24.48,-22.752 z m -24.48,16.224 c -9.696,0 -16.416,-6.912 -16.416,-16.224 0,-9.312 6.72,-16.32 16.416,-16.32 9.696,0 16.416,7.008 16.416,16.32 0,9.408 -6.72,16.224 -16.416,16.224 z" />
      <path
         id="path4717"
         style="fill:#2b91af;fill-opacity:1"
         d="m 449.81427,459.86023 v -22.464 c 0,-0.192 0,-0.288 0,-0.48 0,-2.112 -0.096,-3.072 -2.688,-3.072 h -7.104 c -2.496,0 -3.744,1.056 -3.744,3.264 0,2.4 1.344,3.36 4.32,3.36 0.672,0 1.44,0 2.112,0 v 21.12 c 0,10.944 5.184,16.512 15.456,16.512 5.664,0 9.696,-2.208 14.592,-6.048 v 3.168 c 0,1.152 0.864,1.92 2.688,1.92 h 7.104 c 2.496,0 3.744,-1.152 3.744,-3.36 0,-2.4 -1.344,-3.264 -4.32,-3.264 -0.672,0 -1.44,0 -2.112,0 v -32.16 c 0,-2.784 0,-4.512 -3.264,-4.512 h -9.984 c -2.592,0 -3.744,0.96 -3.744,3.264 0,2.304 0.96,3.36 3.456,3.36 h 6.432 v 19.392 c 0,6.912 -6.048,11.328 -12.384,11.328 -7.296,0 -10.56,-3.648 -10.56,-11.328 z" />
      <path
         id="path4719"
         style="fill:#2b91af;fill-opacity:1"
         d="m 532.23627,436.43623 h -18.432 v -9.504 c 0,-4.608 -0.384,-6.528 -3.744,-6.528 -2.496,0 -3.648,1.344 -3.648,3.936 0,1.248 0,2.112 0,2.496 v 9.6 h -5.184 c -4.512,0 -6.432,0.288 -6.432,3.36 0,2.304 1.152,3.264 3.744,3.264 h 7.872 v 15.648 c 0,0.48 0,0.96 0,1.44 0,4.32 0.096,8.064 1.728,10.848 2.688,4.704 7.68,7.008 14.88,7.008 4.416,0 9.312,-1.248 15.168,-3.552 3.456,-1.344 5.184,-2.688 5.184,-4.896 0,-1.728 -1.536,-3.36 -3.264,-3.36 -3.744,0 -9.984,4.992 -17.568,4.992 -8.256,0 -8.832,-4.992 -8.832,-12.48 v -15.648 h 19.008 c 2.592,0 3.936,-1.056 3.936,-3.264 0,-2.4 -1.44,-3.36 -4.416,-3.36 z" />
      <path
         id="path4721"
         style="fill:#ddccaa;fill-opacity:1"
         d="m 614.13627,442.96423 c -3.168,1.44 -4.8,2.016 -4.8,4.512 0,2.496 1.824,3.168 4.8,4.512 l 37.248,17.376 c 1.536,0.672 2.592,1.152 3.744,1.152 1.92,0 3.072,-1.152 3.072,-2.976 0,-1.92 -1.344,-3.072 -3.84,-4.224 l -33.12,-15.744 33.12,-15.744 c 2.496,-1.152 3.84,-2.208 3.84,-4.128 0,-1.824 -1.152,-2.976 -3.072,-2.976 -1.056,0 -2.208,0.384 -3.744,1.152 z" />
      <path
         id="path4723"
         style="fill:#ddccaa;fill-opacity:1"
         d="m 671.88627,442.96423 c -3.168,1.44 -4.8,2.016 -4.8,4.512 0,2.496 1.824,3.168 4.8,4.512 l 37.248,17.376 c 1.536,0.672 2.592,1.152 3.744,1.152 1.92,0 3.072,-1.152 3.072,-2.976 0,-1.92 -1.344,-3.072 -3.84,-4.224 l -33.12,-15.744 33.12,-15.744 c 2.496,-1.152 3.84,-2.208 3.84,-4.128 0,-1.824 -1.152,-2.976 -3.072,-2.976 -1.056,0 -2.208,0.384 -3.744,1.152 z" />
    </g>
  </g>
</svg>
